<svg width="512" height="448" viewBox="0 0 512 448" fill="none" xmlns="http://www.w3.org/2000/svg">
<path d="M336.333 94.533H271C262.716 94.533 256 87.817 256 79.533V0.266998H336.333C344.617 0.266998 351.333 6.983 351.333 15.267V79.534C351.333 87.817 344.617 94.533 336.333 94.533V94.533Z" fill="#E04E94"/>
<path d="M256 126.667C247.716 126.667 241 119.951 241 111.667V15.267C241 6.983 247.716 0.266998 256 0.266998C264.284 0.266998 271 6.983 271 15.267V111.667C271 119.951 264.284 126.667 256 126.667Z" fill="#5012A0"/>
<path d="M464.866 128.8H47.134C20.798 128.8 0 150.189 0 175.933V194.133C0 202.417 6.716 209.133 15 209.133H31.066C31.066 217.417 37.782 224.133 46.066 224.133H465.933C474.217 224.133 480.933 217.417 480.933 209.133H497C505.284 209.133 512 202.417 512 194.133V175.933C512 149.596 490.61 128.8 464.866 128.8V128.8Z" fill="#E7F9FB"/>
<path d="M480.934 209.133H497C505.284 209.133 512 202.417 512 194.133V175.933C512 149.596 490.61 128.8 464.866 128.8H256V224.133H465.934C474.218 224.133 480.934 217.417 480.934 209.133V209.133Z" fill="#C8FFFF"/>
<path d="M480.934 433H31.066C22.782 433 16.066 426.284 16.066 418V209.133H137.32L245.394 101.06C251.251 95.202 260.749 95.202 266.607 101.06L374.68 209.133H495.934V418C495.934 426.284 489.218 433 480.934 433Z" fill="#5484FF"/>
<path d="M495.934 418V209.133H374.68L266.606 101.06C263.677 98.131 259.838 96.666 256 96.666V433H480.934C489.218 433 495.934 426.284 495.934 418V418Z" fill="#007BEC"/>
<path d="M288.134 433H223.866C215.582 433 208.866 426.284 208.866 418V353.733C208.866 345.449 215.582 338.733 223.866 338.733H288.134C296.418 338.733 303.134 345.449 303.134 353.733V418C303.134 426.284 296.418 433 288.134 433Z" fill="#3B4454"/>
<path d="M159.6 304.467C151.316 304.467 144.6 297.751 144.6 289.467V273.4C144.6 265.116 151.316 258.4 159.6 258.4C167.884 258.4 174.6 265.116 174.6 273.4V289.467C174.6 297.751 167.884 304.467 159.6 304.467Z" fill="#E7F9FB"/>
<path d="M223.866 304.467C215.582 304.467 208.866 297.751 208.866 289.467V273.4C208.866 265.116 215.582 258.4 223.866 258.4C232.15 258.4 238.866 265.116 238.866 273.4V289.467C238.866 297.751 232.15 304.467 223.866 304.467Z" fill="#E7F9FB"/>
<path d="M288.134 304.467C279.85 304.467 273.134 297.751 273.134 289.467V273.4C273.134 265.116 279.85 258.4 288.134 258.4C296.418 258.4 303.134 265.116 303.134 273.4V289.467C303.134 297.751 296.418 304.467 288.134 304.467Z" fill="#C8FFFF"/>
<path d="M256 224.133C247.716 224.133 241 217.417 241 209.133V193.067C241 184.783 247.716 178.067 256 178.067C264.284 178.067 271 184.783 271 193.067V209.133C271 217.417 264.284 224.133 256 224.133Z" fill="#E7F9FB"/>
<path d="M159.6 384.8C151.316 384.8 144.6 378.084 144.6 369.8V353.734C144.6 345.45 151.316 338.734 159.6 338.734C167.884 338.734 174.6 345.45 174.6 353.734V369.8C174.6 378.084 167.884 384.8 159.6 384.8Z" fill="#E7F9FB"/>
<path d="M95.333 304.467C87.049 304.467 80.333 297.751 80.333 289.467V273.4C80.333 265.116 87.049 258.4 95.333 258.4C103.617 258.4 110.333 265.116 110.333 273.4V289.467C110.333 297.751 103.617 304.467 95.333 304.467Z" fill="#E7F9FB"/>
<path d="M95.333 384.8C87.049 384.8 80.333 378.084 80.333 369.8V353.734C80.333 345.45 87.049 338.734 95.333 338.734C103.617 338.734 110.333 345.45 110.333 353.734V369.8C110.333 378.084 103.617 384.8 95.333 384.8Z" fill="#E7F9FB"/>
<path d="M352.4 304.467C344.116 304.467 337.4 297.751 337.4 289.467V273.4C337.4 265.116 344.116 258.4 352.4 258.4C360.684 258.4 367.4 265.116 367.4 273.4V289.467C367.4 297.751 360.685 304.467 352.4 304.467Z" fill="#C8FFFF"/>
<path d="M352.4 384.8C344.116 384.8 337.4 378.084 337.4 369.8V353.734C337.4 345.45 344.116 338.734 352.4 338.734C360.684 338.734 367.4 345.45 367.4 353.734V369.8C367.4 378.084 360.685 384.8 352.4 384.8Z" fill="#C8FFFF"/>
<path d="M303.134 418V353.733C303.134 345.449 296.418 338.733 288.134 338.733H256V433H288.134C296.418 433 303.134 426.284 303.134 418Z" fill="#323D50"/>
<path d="M271 209.133V193.067C271 184.783 264.284 178.067 256 178.067V224.133C264.284 224.133 271 217.417 271 209.133V209.133Z" fill="#C8FFFF"/>
<path d="M497 448H15C6.716 448 0 441.284 0 433C0 424.716 6.716 418 15 418H497C505.284 418 512 424.716 512 433C512 441.284 505.284 448 497 448Z" fill="#E7F9FB"/>
<path d="M497 418H256V448H497C505.284 448 512 441.284 512 433C512 424.716 505.284 418 497 418Z" fill="#C8FFFF"/>
</svg>
