<svg xmlns="http://www.w3.org/2000/svg" viewBox="0 0 584 598" width="584" height="598" preserveAspectRatio="xMidYMid meet" style="width: 100%; height: 100%; transform: translate3d(0px, 0px, 0px);"><defs><clipPath id="__lottie_element_171"><rect width="584" height="598" x="0" y="0"></rect></clipPath><filter id="__lottie_element_176" filterUnits="objectBoundingBox" x="0%" y="0%" width="100%" height="100%"><feComponentTransfer in="SourceGraphic"><feFuncA type="table" tableValues="1.0 0.0"></feFuncA></feComponentTransfer></filter><mask id="__lottie_element_175" mask-type="alpha"><g filter="url(#__lottie_element_176)"><rect width="584" height="598" x="0" y="0" fill="#ffffff" opacity="0"></rect><g transform="matrix(0.9991262555122375,-0.0417938195168972,0.0417938195168972,0.9991262555122375,290,275.6134948730469)" opacity="1" style="display: block;"><g opacity="1" transform="matrix(1,0,0,1,0,0)"><path fill="rgb(255,255,255)" fill-opacity="1" d=" M248.49600219726562,-103.07499694824219 C247.28199768066406,-129.68499755859375 243.05599975585938,-147.85800170898438 236.87600708007812,-163.75999450683594 C230.48699951171875,-180.1999969482422 221.93800354003906,-194.14100646972656 208.0399932861328,-208.03900146484375 C194.14100646972656,-221.93699645996094 180.19900512695312,-230.48599243164062 163.75900268554688,-236.875 C147.85699462890625,-243.05599975585938 129.68499755859375,-247.281005859375 103.07499694824219,-248.49600219726562 C76.41000366210938,-249.71299743652344 67.8949966430664,-250 0,-250 C-67.89600372314453,-250 -76.41000366210938,-249.71299743652344 -103.07499694824219,-248.49600219726562 C-129.68499755859375,-247.281005859375 -147.85699462890625,-243.05599975585938 -163.75999450683594,-236.875 C-180.1999969482422,-230.48599243164062 -194.14199829101562,-221.93699645996094 -208.0399932861328,-208.03900146484375 C-221.93800354003906,-194.14100646972656 -230.48699951171875,-180.1999969482422 -236.87600708007812,-163.75999450683594 C-243.0570068359375,-147.85800170898438 -247.28199768066406,-129.68499755859375 -248.4969940185547,-103.07499694824219 C-249.71400451660156,-76.41000366210938 -250,-67.89600372314453 -250,0 C-250,67.8949966430664 -249.71400451660156,76.41000366210938 -248.4969940185547,103.07499694824219 C-247.28199768066406,129.68499755859375 -243.0570068359375,147.85699462890625 -236.87600708007812,163.75900268554688 C-230.48699951171875,180.19900512695312 -221.93800354003906,194.14100646972656 -208.0399932861328,208.0399932861328 C-194.14199829101562,221.93800354003906 -180.1999969482422,230.48699951171875 -163.75999450683594,236.87600708007812 C-147.85699462890625,243.05599975585938 -129.68499755859375,247.28199768066406 -103.07499694824219,248.49600219726562 C-76.41000366210938,249.71299743652344 -67.89600372314453,250 0,250 C67.8949966430664,250 76.41000366210938,249.71299743652344 103.07499694824219,248.49600219726562 C129.68499755859375,247.28199768066406 147.85699462890625,243.05599975585938 163.75900268554688,236.87600708007812 C180.19900512695312,230.48699951171875 194.14100646972656,221.93800354003906 208.0399932861328,208.0399932861328 C221.93800354003906,194.14100646972656 230.48699951171875,180.19900512695312 236.87600708007812,163.75900268554688 C243.05599975585938,147.85699462890625 247.28199768066406,129.68499755859375 248.49600219726562,103.07499694824219 C249.71299743652344,76.41000366210938 250,67.8949966430664 250,0 C250,-67.89600372314453 249.71299743652344,-76.41000366210938 248.49600219726562,-103.07499694824219z M0.0010000000474974513,118.83399963378906 C-65.62999725341797,118.83399963378906 -118.83399963378906,65.63099670410156 -118.83399963378906,0.0010000000474974513 C-118.83399963378906,-65.62999725341797 -65.62999725341797,-118.83399963378906 0.0010000000474974513,-118.83399963378906 C65.63099670410156,-118.83399963378906 118.83399963378906,-65.62999725341797 118.83399963378906,0.0010000000474974513 C118.83399963378906,65.63099670410156 65.63099670410156,118.83399963378906 0.0010000000474974513,118.83399963378906z"></path></g></g></g></mask></defs><g clip-path="url(#__lottie_element_171)"><g transform="matrix(0.9991262555122375,-0.0417938195168972,0.0417938195168972,0.9991262555122375,290,275.6134948730469)" opacity="1" style="mix-blend-mode: darken; display: block;"><g opacity="1" transform="matrix(1,0,0,1,0,0)"><path fill="rgb(255,255,255)" fill-opacity="1" d=" M0.000007154515060392441,-227.24000549316406 C-61.71553039550781,-227.24000549316406 -69.45313262939453,-226.9798126220703 -93.69062805175781,-225.87301635742188 C-117.87808227539062,-224.76922607421875 -134.39698791503906,-220.92845153808594 -148.85243225097656,-215.31039428710938 C-163.7952117919922,-209.50320434570312 -176.4673614501953,-201.7325897216797 -189.10047912597656,-189.09947204589844 C-201.7335968017578,-176.46636962890625 -209.50320434570312,-163.79421997070312 -215.3114013671875,-148.85142517089844 C-220.92945861816406,-134.39700317382812 -224.7702178955078,-117.87808227539062 -225.8740234375,-93.69062805175781 C-226.97982788085938,-69.45313262939453 -227.24000549316406,-61.71553039550781 -227.24000549316406,0.000007154515060392441 C-227.24000549316406,61.714542388916016 -226.98081970214844,69.45313262939453 -225.8740234375,93.69062805175781 C-224.7702178955078,117.87808227539062 -220.928466796875,134.39698791503906 -215.3114013671875,148.85142517089844 C-209.5041961669922,163.79421997070312 -201.7335968017578,176.4673614501953 -189.10047912597656,189.10047912597656 C-176.4673614501953,201.7335968017578 -163.79620361328125,209.5052032470703 -148.85243225097656,215.3114013671875 C-134.39698791503906,220.92845153808594 -117.87808227539062,224.76922607421875 -93.69062805175781,225.87301635742188 C-69.45313262939453,226.97882080078125 -61.71553039550781,227.24000549316406 0.000007154515060392441,227.24000549316406 C61.714542388916016,227.24000549316406 69.45313262939453,226.97882080078125 93.69062805175781,225.87301635742188 C117.87808227539062,224.7702178955078 134.39698791503906,220.92845153808594 148.85142517089844,215.3114013671875 C163.79421997070312,209.5041961669922 176.4673614501953,201.73458862304688 189.10047912597656,189.10047912597656 C201.7335968017578,176.46636962890625 209.5041961669922,163.79421997070312 215.3114013671875,148.85142517089844 C220.92845153808594,134.39698791503906 224.76922607421875,117.87808227539062 225.87301635742188,93.69062805175781 C226.97882080078125,69.45313262939453 227.24000549316406,61.714542388916016 227.24000549316406,0.000007154515060392441 C227.24000549316406,-61.71553039550781 226.97882080078125,-69.45313262939453 225.87301635742188,-93.69062805175781 C224.7702178955078,-117.87808227539062 220.92845153808594,-134.39700317382812 215.3114013671875,-148.85142517089844 C209.5041961669922,-163.79421997070312 201.7335968017578,-176.4673614501953 189.10047912597656,-189.09947204589844 C176.46636962890625,-201.7325897216797 163.79421997070312,-209.50221252441406 148.85142517089844,-215.31039428710938 C134.39698791503906,-220.92845153808594 117.87808227539062,-224.76922607421875 93.69062805175781,-225.87301635742188 C69.45313262939453,-226.97882080078125 61.714542388916016,-227.24000549316406 0.000007154515060392441,-227.24000549316406z M0.000007154515060392441,-186.2954559326172 C60.674800872802734,-186.2954559326172 67.86297607421875,-186.06527709960938 91.82427215576172,-184.97149658203125 C113.98026275634766,-183.9607696533203 126.01294708251953,-180.25909423828125 134.0197296142578,-177.1468505859375 C144.6263885498047,-173.02487182617188 152.19683837890625,-168.0993194580078 160.14857482910156,-160.14857482910156 C168.101318359375,-152.19683837890625 173.02487182617188,-144.62637329101562 177.1468505859375,-134.0197296142578 C180.25909423828125,-126.01195526123047 183.9607696533203,-113.98026275634766 184.97149658203125,-91.82427215576172 C186.0642852783203,-67.86297607421875 186.29644775390625,-60.675785064697266 186.29644775390625,0.000007154515060392441 C186.29644775390625,60.674800872802734 186.0642852783203,67.86297607421875 184.97149658203125,91.82427215576172 C183.9607696533203,113.98026275634766 180.25909423828125,126.01195526123047 177.1468505859375,134.0197296142578 C173.02487182617188,144.6263885498047 168.10032653808594,152.1958465576172 160.14857482910156,160.14857482910156 C152.19683837890625,168.101318359375 144.6263885498047,173.02487182617188 134.0197296142578,177.1468505859375 C126.01195526123047,180.25909423828125 113.98026275634766,183.9607696533203 91.82427215576172,184.97149658203125 C67.86598205566406,186.0642852783203 60.6797981262207,186.29644775390625 0.000007154515060392441,186.29644775390625 C-60.6807861328125,186.29644775390625 -67.86498260498047,186.0642852783203 -91.82427215576172,184.97149658203125 C-113.98026275634766,183.9607696533203 -126.01195526123047,180.25909423828125 -134.0197296142578,177.1468505859375 C-144.6263885498047,173.02487182617188 -152.1958465576172,168.101318359375 -160.14859008789062,160.14857482910156 C-168.10032653808594,152.19683837890625 -173.02488708496094,144.6263885498047 -177.1468505859375,134.0197296142578 C-180.25909423828125,126.01195526123047 -183.96176147460938,113.98026275634766 -184.97250366210938,91.82427215576172 C-186.06529235839844,67.86297607421875 -186.29644775390625,60.674800872802734 -186.29644775390625,0.000007154515060392441 C-186.29644775390625,-60.675785064697266 -186.0662841796875,-67.86297607421875 -184.97250366210938,-91.82427215576172 C-183.96176147460938,-113.98026275634766 -180.2581024169922,-126.01195526123047 -177.1468505859375,-134.0197296142578 C-173.02587890625,-144.62538146972656 -168.10032653808594,-152.1978302001953 -160.14859008789062,-160.14857482910156 C-152.1958465576172,-168.10032653808594 -144.62738037109375,-173.02586364746094 -134.0197296142578,-177.1468505859375 C-126.01195526123047,-180.2581024169922 -113.98026275634766,-183.9607696533203 -91.82427215576172,-184.97149658203125 C-67.86297607421875,-186.0642852783203 -60.675785064697266,-186.2954559326172 0.000007154515060392441,-186.2954559326172z"></path></g><g opacity="1" transform="matrix(1,0,0,1,0,0)"><path fill="rgb(255,255,255)" fill-opacity="1" d=" M7.190789119704277e-8,82.51560974121094 C-45.57233810424805,82.51560974121094 -82.51560974121094,45.57133865356445 -82.51560974121094,7.190789119704277e-8 C-82.51560974121094,-45.57233810424805 -45.57233810424805,-82.51560974121094 7.190789119704277e-8,-82.51560974121094 C45.57133865356445,-82.51560974121094 82.51560974121094,-45.57233810424805 82.51560974121094,7.190789119704277e-8 C82.51560974121094,45.57133865356445 45.57133865356445,82.51560974121094 7.190789119704277e-8,82.51560974121094z M0.0010000000474974513,-127.1179428100586 C-70.20552062988281,-127.1179428100586 -127.1179428100586,-70.20552062988281 -127.1179428100586,0.0010000000474974513 C-127.1179428100586,70.2065200805664 -70.20552062988281,127.1179428100586 0.0010000000474974513,127.1179428100586 C70.2065200805664,127.1179428100586 127.1179428100586,70.2065200805664 127.1179428100586,0.0010000000474974513 C127.1179428100586,-70.20552062988281 70.2065200805664,-127.1179428100586 0.0010000000474974513,-127.1179428100586z"></path></g><g opacity="1" transform="matrix(1,0,0,1,0,0)"><path fill="rgb(255,255,255)" fill-opacity="1" d=" M148.4683380126953,-121.21835327148438 C148.4683380126953,-106.16881561279297 136.2678985595703,-93.96837615966797 121.21835327148438,-93.96837615966797 C106.16881561279297,-93.96837615966797 93.96837615966797,-106.16881561279297 93.96837615966797,-121.21835327148438 C93.96837615966797,-136.2678985595703 106.16881561279297,-148.4673309326172 121.21835327148438,-148.4673309326172 C136.2678985595703,-148.4673309326172 148.4683380126953,-136.2678985595703 148.4683380126953,-121.21835327148438z"></path></g></g><g mask="url(#__lottie_element_175)" style="display: none;"><g transform="matrix(-0.32048651576042175,0.9472530484199524,-0.9472530484199524,-0.32048651576042175,220.02459716796875,183.2068328857422)" opacity="1"><g opacity="1" transform="matrix(1,0,0,1,0,0)"><path fill="rgb(255,255,255)" fill-opacity="1" d=" M83.66699981689453,18.070425033569336 C83.66699981689453,74.2580795288086 38.619102478027344,119.8071060180664 -16.95029067993164,119.8071060180664 C-72.51968383789062,119.8071060180664 -117.56684112548828,74.2580795288086 -117.56684112548828,18.070425033569336 C-117.56684112548828,-38.11722946166992 -72.51968383789062,-83.66699981689453 -16.95029067993164,-83.66699981689453 C38.619102478027344,-83.66699981689453 83.66699981689453,-38.11722946166992 83.66699981689453,18.070425033569336z"></path><path stroke-linecap="butt" stroke-linejoin="miter" fill-opacity="0" stroke-miterlimit="10" stroke="rgb(255,255,255)" stroke-opacity="1" stroke-width="1" d=" M83.66699981689453,18.070425033569336 C83.66699981689453,74.2580795288086 38.619102478027344,119.8071060180664 -16.95029067993164,119.8071060180664 C-72.51968383789062,119.8071060180664 -117.56684112548828,74.2580795288086 -117.56684112548828,18.070425033569336 C-117.56684112548828,-38.11722946166992 -72.51968383789062,-83.66699981689453 -16.95029067993164,-83.66699981689453 C38.619102478027344,-83.66699981689453 83.66699981689453,-38.11722946166992 83.66699981689453,18.070425033569336z"></path></g></g></g></g></svg>